<mxfile host="Electron" modified="2023-12-18T02:52:45.647Z" agent="Mozilla/5.0 (X11; Linux x86_64) AppleWebKit/537.36 (KHTML, like Gecko) draw.io/22.1.2 Chrome/114.0.5735.289 Electron/25.9.4 Safari/537.36" etag="7Azp0yxmci9x4tlOeklS" version="22.1.2" type="device">
  <diagram name="Page-1" id="9sPlgebk2zGvWsBPrK1r">
    <mxGraphModel dx="1395" dy="696" grid="1" gridSize="10" guides="1" tooltips="1" connect="1" arrows="1" fold="1" page="1" pageScale="1" pageWidth="850" pageHeight="1100" math="0" shadow="0">
      <root>
        <mxCell id="0" />
        <mxCell id="1" parent="0" />
        <mxCell id="2I8eSpRx2JAJ6GWWi-Yu-10" value="" style="rounded=0;whiteSpace=wrap;html=1;fillColor=none;dashed=1;dashPattern=8 8;strokeWidth=1;strokeColor=#4D4D4D;movable=1;resizable=1;rotatable=1;deletable=1;editable=1;locked=0;connectable=1;" parent="1" vertex="1">
          <mxGeometry x="60" y="60" width="720" height="720" as="geometry" />
        </mxCell>
        <mxCell id="2I8eSpRx2JAJ6GWWi-Yu-9" value="" style="image;aspect=fixed;html=1;points=[];align=center;fontSize=12;image=img/lib/azure2/networking/Virtual_Networks.svg;container=0;imageBackground=default;imageBorder=none;fillStyle=solid;movable=0;resizable=0;rotatable=0;deletable=0;editable=0;locked=1;connectable=0;" parent="1" vertex="1">
          <mxGeometry x="40" y="52" width="49" height="28" as="geometry" />
        </mxCell>
        <mxCell id="2I8eSpRx2JAJ6GWWi-Yu-11" value="Vnet (10.0.0.0/16)" style="text;html=1;strokeColor=none;fillColor=none;align=center;verticalAlign=middle;whiteSpace=wrap;rounded=0;strokeWidth=1;fontStyle=1;movable=0;resizable=0;rotatable=0;deletable=0;editable=0;locked=1;connectable=0;" parent="1" vertex="1">
          <mxGeometry x="80" y="60" width="130" height="30" as="geometry" />
        </mxCell>
        <mxCell id="2I8eSpRx2JAJ6GWWi-Yu-13" value="Private subnet (10.0.20.0/24)" style="points=[[0,0],[0.25,0],[0.5,0],[0.75,0],[1,0],[1,0.25],[1,0.5],[1,0.75],[1,1],[0.75,1],[0.5,1],[0.25,1],[0,1],[0,0.75],[0,0.5],[0,0.25]];outlineConnect=0;gradientColor=none;html=1;whiteSpace=wrap;fontSize=12;fontStyle=0;container=1;pointerEvents=0;collapsible=0;recursiveResize=0;shape=mxgraph.aws4.group;grIcon=mxgraph.aws4.group_security_group;grStroke=0;strokeColor=#00A4A6;fillColor=#E6F6F7;verticalAlign=top;align=left;spacingLeft=30;fontColor=#147EBA;dashed=0;" parent="1" vertex="1">
          <mxGeometry x="160" y="400" width="200" height="200" as="geometry" />
        </mxCell>
        <mxCell id="2I8eSpRx2JAJ6GWWi-Yu-19" value="Jenkins Slave" style="image;aspect=fixed;html=1;points=[];align=center;fontSize=11;image=img/lib/azure2/compute/Virtual_Machine.svg;labelBackgroundColor=none;" parent="2I8eSpRx2JAJ6GWWi-Yu-13" vertex="1">
          <mxGeometry x="30.000000000000007" y="50" width="43.13" height="40" as="geometry" />
        </mxCell>
        <mxCell id="2I8eSpRx2JAJ6GWWi-Yu-14" value="Public subnet (10.0.10.0/24)" style="points=[[0,0],[0.25,0],[0.5,0],[0.75,0],[1,0],[1,0.25],[1,0.5],[1,0.75],[1,1],[0.75,1],[0.5,1],[0.25,1],[0,1],[0,0.75],[0,0.5],[0,0.25]];outlineConnect=0;gradientColor=none;html=1;whiteSpace=wrap;fontSize=12;fontStyle=0;container=1;pointerEvents=0;collapsible=0;recursiveResize=0;shape=mxgraph.aws4.group;grIcon=mxgraph.aws4.group_security_group;grStroke=0;strokeColor=#7AA116;fillColor=#F2F6E8;verticalAlign=top;align=left;spacingLeft=30;fontColor=#248814;dashed=0;" parent="1" vertex="1">
          <mxGeometry x="160" y="160" width="200" height="200" as="geometry" />
        </mxCell>
        <mxCell id="2I8eSpRx2JAJ6GWWi-Yu-16" value="Ansible Server" style="image;aspect=fixed;html=1;points=[];align=center;fontSize=11;image=img/lib/azure2/compute/Virtual_Machine.svg;labelBackgroundColor=none;" parent="2I8eSpRx2JAJ6GWWi-Yu-14" vertex="1">
          <mxGeometry x="30.000000000000007" y="50" width="43.13" height="40" as="geometry" />
        </mxCell>
        <mxCell id="2I8eSpRx2JAJ6GWWi-Yu-20" value="NSG&lt;br&gt;Ansible-server" style="image;aspect=fixed;html=1;points=[];align=center;fontSize=10;image=img/lib/azure2/networking/Network_Security_Groups.svg;labelBackgroundColor=none;" parent="2I8eSpRx2JAJ6GWWi-Yu-14" vertex="1">
          <mxGeometry x="130" y="50" width="24.7" height="30" as="geometry" />
        </mxCell>
        <mxCell id="2I8eSpRx2JAJ6GWWi-Yu-21" value="Public subnet (10.0.11.0/24)" style="points=[[0,0],[0.25,0],[0.5,0],[0.75,0],[1,0],[1,0.25],[1,0.5],[1,0.75],[1,1],[0.75,1],[0.5,1],[0.25,1],[0,1],[0,0.75],[0,0.5],[0,0.25]];outlineConnect=0;gradientColor=none;html=1;whiteSpace=wrap;fontSize=12;fontStyle=0;container=1;pointerEvents=0;collapsible=0;recursiveResize=0;shape=mxgraph.aws4.group;grIcon=mxgraph.aws4.group_security_group;grStroke=0;strokeColor=#7AA116;fillColor=#F2F6E8;verticalAlign=top;align=left;spacingLeft=30;fontColor=#248814;dashed=0;" parent="1" vertex="1">
          <mxGeometry x="400" y="160" width="200" height="200" as="geometry" />
        </mxCell>
        <mxCell id="2I8eSpRx2JAJ6GWWi-Yu-23" value="NSG&lt;br&gt;Jenkins-master" style="image;aspect=fixed;html=1;points=[];align=center;fontSize=10;image=img/lib/azure2/networking/Network_Security_Groups.svg;labelBackgroundColor=none;" parent="2I8eSpRx2JAJ6GWWi-Yu-21" vertex="1">
          <mxGeometry x="140" y="50" width="24.7" height="30" as="geometry" />
        </mxCell>
        <mxCell id="5IBTPPoO-UX_fZcg_tp9-2" value="" style="shape=image;verticalLabelPosition=bottom;labelBackgroundColor=default;verticalAlign=top;aspect=fixed;imageAspect=0;image=https://www.jenkins.io/images/logos/jenkins/jenkins.png;" vertex="1" parent="2I8eSpRx2JAJ6GWWi-Yu-21">
          <mxGeometry x="74.64" y="120" width="50.72" height="70" as="geometry" />
        </mxCell>
        <mxCell id="2I8eSpRx2JAJ6GWWi-Yu-17" value="Jenkins Master" style="image;aspect=fixed;html=1;points=[];align=center;fontSize=11;image=img/lib/azure2/compute/Virtual_Machine.svg;labelBackgroundColor=none;" parent="1" vertex="1">
          <mxGeometry x="425" y="210" width="43.13" height="40" as="geometry" />
        </mxCell>
        <mxCell id="2I8eSpRx2JAJ6GWWi-Yu-24" value="NSG&lt;br&gt;Jenkins-master" style="image;aspect=fixed;html=1;points=[];align=center;fontSize=10;image=img/lib/azure2/networking/Network_Security_Groups.svg;labelBackgroundColor=none;" parent="1" vertex="1">
          <mxGeometry x="300" y="450" width="24.7" height="30" as="geometry" />
        </mxCell>
        <mxCell id="5IBTPPoO-UX_fZcg_tp9-1" value="" style="shape=image;verticalLabelPosition=bottom;labelBackgroundColor=default;verticalAlign=top;aspect=fixed;imageAspect=0;image=https://i.imgflip.com/5o55va.png;" vertex="1" parent="1">
          <mxGeometry x="220" y="287" width="61.33" height="63" as="geometry" />
        </mxCell>
      </root>
    </mxGraphModel>
  </diagram>
</mxfile>
